<?xml version="1.0" encoding="UTF-8"?>
<!DOCTYPE svg PUBLIC "-//W3C//DTD SVG 1.1//EN" "http://www.w3.org/Graphics/SVG/1.1/DTD/svg11.dtd">
<!-- Creator: CorelDRAW X6 -->
<svg xmlns="http://www.w3.org/2000/svg" xml:space="preserve" width="6428.57mm" height="9000mm" version="1.1" style="shape-rendering:geometricPrecision; text-rendering:geometricPrecision; image-rendering:optimizeQuality; fill-rule:evenodd; clip-rule:evenodd"
viewBox="0 0 642857 900000"
 xmlns:xlink="http://www.w3.org/1999/xlink">
 <defs>
  <style type="text/css">
   <![CDATA[
    .str0 {stroke:#2B2A29;stroke-width:20}
    .fil3 {fill:none}
    .fil2 {fill:#434242}
    .fil0 {fill:#F8C3AD}
    .fil1 {fill:#FEFEFE}
    .fil6 {fill:#2B2A29;fill-rule:nonzero}
    .fil4 {fill:#434242;fill-rule:nonzero}
    .fil5 {fill:url(#id1);fill-rule:nonzero}
    .fil7 {fill:url(#id2);fill-rule:nonzero}
    .fil8 {fill:url(#id3);fill-rule:nonzero}
    .fil9 {fill:url(#id4);fill-rule:nonzero}
    .fil10 {fill:url(#id5);fill-rule:nonzero}
   ]]>
  </style>
    <clipPath id="id0">
     <path d="M0 0l642857 0 0 900000 -642857 0 0 -900000zm222090 611520l0 0 3907 2197c3715,2312 7891,4024 12414,5249l2252 671 982 2336c7160,15401 16956,29021 28195,39033 14800,13019 32179,19864 50020,19864l3214 0c17841,0 35085,-6845 49886,-19864 11509,-9920 21190,-23378 28157,-38894l1059 -2382 2194 -509c4504,-1041 8680,-2960 12799,-5272l3907 -2081 3484 6637 36952 0 0 -44537 -5831 -4625 2059 -4579c1828,-4671 3252,-9712 4407,-15100l462 -2498 1886 -1410c13068,-8394 24211,-20025 32526,-33692 10836,-17967 16629,-38640 16629,-60192l0 -3700c0,-21436 -5793,-42224 -16629,-60076 -8314,-13643 -19400,-25297 -32391,-33738l-1751 -1226 -539 -2798c-1097,-5365 -2444,-10591 -4273,-15285l-2059 -4787 5504 -4139 0 -44444 -36952 0 -3484 6590 -3907 -2220c-4119,-2266 -8295,-4093 -12799,-5180l-2194 -509 -1059 -2544c-6967,-15493 -16648,-28858 -28157,-38686 -14800,-13065 -32045,-20002 -49886,-20002l-3214 0c-17841,0 -35220,6937 -50020,20002 -11240,9966 -21036,23424 -28195,38871l-982 2428 -2252 532c-4523,1226 -8699,2983 -12414,5319l-3907 2312 -3907 -6914 -36798 0 0 44444 5504 4139 -1867 4787c-2040,4694 -3503,9920 -4504,15285l-366 2798 -2021 1226c-12799,8440 -24038,20095 -32160,33738 -10932,17852 -16763,38640 -16763,60076l0 3700c0,21552 5831,42224 16763,60192 8353,13666 19496,25298 32256,33692l2117 1410 404 2498c1097,5388 2483,10429 4503,15100l1732 4579 -5601 4625 0 44537 36798 0 3907 -6983z"/>
    </clipPath>
  <linearGradient id="id1" gradientUnits="userSpaceOnUse" x1="110790" y1="450000" x2="532067" y2="450000">
   <stop offset="0" style="stop-color:#F7E18D"/>
   <stop offset="0.188235" style="stop-color:#BF8A43"/>
   <stop offset="0.419608" style="stop-color:#F5DD94"/>
   <stop offset="0.588235" style="stop-color:#B59655"/>
   <stop offset="0.839216" style="stop-color:#F9E299"/>
   <stop offset="1" style="stop-color:#BFA162"/>
  </linearGradient>
  <linearGradient id="id2" gradientUnits="userSpaceOnUse" x1="128083" y1="242937" x2="122395" y2="381861">
   <stop offset="0" style="stop-color:#F6DE8A"/>
   <stop offset="0.270588" style="stop-color:#C3924A"/>
   <stop offset="0.588235" style="stop-color:#F3DB91"/>
   <stop offset="0.890196" style="stop-color:#BDA05D"/>
   <stop offset="1" style="stop-color:#F0D890"/>
  </linearGradient>
  <linearGradient id="id3" gradientUnits="userSpaceOnUse" xlink:href="#id2" x1="99086.3" y1="251019" x2="94019" y2="374768">
  </linearGradient>
  <linearGradient id="id4" gradientUnits="userSpaceOnUse" xlink:href="#id2" x1="514774" y1="242937" x2="520463" y2="381861">
  </linearGradient>
  <linearGradient id="id5" gradientUnits="userSpaceOnUse" xlink:href="#id2" x1="543771" y1="251019" x2="548838" y2="374768">
  </linearGradient>
 </defs>
 <g id="Layer_x0020_1">
  <metadata id="CorelCorpID_0Corel-Layer"/>
  <g id="_305822944">
   <path class="fil0" d="M0 0l642857 0 0 900000 -642857 0 0 -900000zm222090 611520l0 0 3907 2197c3715,2312 7891,4024 12414,5249l2252 671 982 2336c7160,15401 16956,29021 28195,39033 14800,13019 32179,19864 50020,19864l3214 0c17841,0 35085,-6845 49886,-19864 11509,-9920 21190,-23378 28157,-38894l1059 -2382 2194 -509c4504,-1041 8680,-2960 12799,-5272l3907 -2081 3484 6637 36952 0 0 -44537 -5831 -4625 2059 -4579c1828,-4671 3252,-9712 4407,-15100l462 -2498 1886 -1410c13068,-8394 24211,-20025 32526,-33692 10836,-17967 16629,-38640 16629,-60192l0 -3700c0,-21436 -5793,-42224 -16629,-60076 -8314,-13643 -19400,-25297 -32391,-33738l-1751 -1226 -539 -2798c-1097,-5365 -2444,-10591 -4273,-15285l-2059 -4787 5504 -4139 0 -44444 -36952 0 -3484 6590 -3907 -2220c-4119,-2266 -8295,-4093 -12799,-5180l-2194 -509 -1059 -2544c-6967,-15493 -16648,-28858 -28157,-38686 -14800,-13065 -32045,-20002 -49886,-20002l-3214 0c-17841,0 -35220,6937 -50020,20002 -11240,9966 -21036,23424 -28195,38871l-982 2428 -2252 532c-4523,1226 -8699,2983 -12414,5319l-3907 2312 -3907 -6914 -36798 0 0 44444 5504 4139 -1867 4787c-2040,4694 -3503,9920 -4504,15285l-366 2798 -2021 1226c-12799,8440 -24038,20095 -32160,33738 -10932,17852 -16763,38640 -16763,60076l0 3700c0,21552 5831,42224 16763,60192 8353,13666 19496,25298 32256,33692l2117 1410 404 2498c1097,5388 2483,10429 4503,15100l1732 4579 -5601 4625 0 44537 36798 0 3907 -6983z"/>
   <g style="clip-path:url(#id0)">
    <g>
     <g>
      <g>
       <g>
        <circle class="fil1" cx="-150059" cy="37855" r="11702"/>
        <circle class="fil1" cx="-64334" cy="37855" r="11702"/>
        <circle class="fil1" cx="21391" cy="37855" r="11702"/>
        <circle class="fil1" cx="107116" cy="37855" r="11702"/>
        <circle class="fil1" cx="192841" cy="37855" r="11702"/>
        <circle class="fil1" cx="278566" cy="37855" r="11702"/>
        <circle class="fil1" cx="364291" cy="37855" r="11702"/>
        <circle class="fil1" cx="450016" cy="37855" r="11702"/>
        <circle class="fil1" cx="535741" cy="37855" r="11702"/>
        <circle class="fil1" cx="621466" cy="37855" r="11702"/>
        <circle class="fil1" cx="707191" cy="37855" r="11702"/>
        <circle class="fil1" cx="792916" cy="37855" r="11702"/>
       </g>
       <g>
        <circle class="fil1" cx="-193893" cy="96434" r="11702"/>
        <circle class="fil1" cx="-108168" cy="96434" r="11702"/>
        <circle class="fil1" cx="-22443" cy="96434" r="11702"/>
        <circle class="fil1" cx="63282" cy="96434" r="11702"/>
        <circle class="fil1" cx="149007" cy="96434" r="11702"/>
        <circle class="fil1" cx="234732" cy="96434" r="11702"/>
        <circle class="fil1" cx="320457" cy="96434" r="11702"/>
        <circle class="fil1" cx="406182" cy="96434" r="11702"/>
        <circle class="fil1" cx="491907" cy="96434" r="11702"/>
        <circle class="fil1" cx="577632" cy="96434" r="11702"/>
        <circle class="fil1" cx="663357" cy="96434" r="11702"/>
        <circle class="fil1" cx="749082" cy="96434" r="11702"/>
       </g>
      </g>
      <g>
       <g>
        <circle class="fil1" cx="-150059" cy="155693" r="11702"/>
        <circle class="fil1" cx="-64334" cy="155693" r="11702"/>
        <circle class="fil1" cx="21391" cy="155693" r="11702"/>
        <circle class="fil1" cx="107116" cy="155693" r="11702"/>
        <circle class="fil1" cx="192841" cy="155693" r="11702"/>
        <circle class="fil1" cx="278566" cy="155693" r="11702"/>
        <circle class="fil1" cx="364291" cy="155693" r="11702"/>
        <circle class="fil1" cx="450016" cy="155693" r="11702"/>
        <circle class="fil1" cx="535741" cy="155693" r="11702"/>
        <circle class="fil1" cx="621466" cy="155693" r="11702"/>
        <circle class="fil1" cx="707191" cy="155693" r="11702"/>
        <circle class="fil1" cx="792916" cy="155693" r="11702"/>
       </g>
       <g>
        <circle class="fil1" cx="-193893" cy="214272" r="11702"/>
        <circle class="fil1" cx="-108168" cy="214272" r="11702"/>
        <circle class="fil1" cx="-22443" cy="214272" r="11702"/>
        <circle class="fil1" cx="63282" cy="214272" r="11702"/>
        <circle class="fil1" cx="149007" cy="214272" r="11702"/>
        <circle class="fil1" cx="234732" cy="214272" r="11702"/>
        <circle class="fil1" cx="320457" cy="214272" r="11702"/>
        <circle class="fil1" cx="406182" cy="214272" r="11702"/>
        <circle class="fil1" cx="491907" cy="214272" r="11702"/>
        <circle class="fil1" cx="577632" cy="214272" r="11702"/>
        <circle class="fil1" cx="663357" cy="214272" r="11702"/>
        <circle class="fil1" cx="749082" cy="214272" r="11702"/>
       </g>
      </g>
      <g>
       <g>
        <circle class="fil1" cx="-150059" cy="273531" r="11702"/>
        <circle class="fil1" cx="-64334" cy="273531" r="11702"/>
        <circle class="fil1" cx="21391" cy="273531" r="11702"/>
        <circle class="fil1" cx="107116" cy="273531" r="11702"/>
        <circle class="fil1" cx="192841" cy="273531" r="11702"/>
        <circle class="fil1" cx="278566" cy="273531" r="11702"/>
        <circle class="fil1" cx="364291" cy="273531" r="11702"/>
        <circle class="fil1" cx="450016" cy="273531" r="11702"/>
        <circle class="fil1" cx="535741" cy="273531" r="11702"/>
        <circle class="fil1" cx="621466" cy="273531" r="11702"/>
        <circle class="fil1" cx="707191" cy="273531" r="11702"/>
        <circle class="fil1" cx="792916" cy="273531" r="11702"/>
       </g>
       <g>
        <circle class="fil1" cx="-193893" cy="332110" r="11702"/>
        <circle class="fil1" cx="-108168" cy="332110" r="11702"/>
        <circle class="fil1" cx="-22443" cy="332110" r="11702"/>
        <circle class="fil1" cx="63282" cy="332110" r="11702"/>
        <circle class="fil1" cx="149007" cy="332110" r="11702"/>
        <circle class="fil1" cx="234732" cy="332110" r="11702"/>
        <circle class="fil1" cx="320457" cy="332110" r="11702"/>
        <circle class="fil1" cx="406182" cy="332110" r="11702"/>
        <circle class="fil1" cx="491907" cy="332110" r="11702"/>
        <circle class="fil1" cx="577632" cy="332110" r="11702"/>
        <circle class="fil1" cx="663357" cy="332110" r="11702"/>
        <circle class="fil1" cx="749082" cy="332110" r="11702"/>
       </g>
      </g>
      <g>
       <g>
        <circle class="fil1" cx="-150059" cy="391369" r="11702"/>
        <circle class="fil1" cx="-64334" cy="391369" r="11702"/>
        <circle class="fil1" cx="21391" cy="391369" r="11702"/>
        <circle class="fil1" cx="107116" cy="391369" r="11702"/>
        <circle class="fil1" cx="192841" cy="391369" r="11702"/>
        <circle class="fil1" cx="278566" cy="391369" r="11702"/>
        <circle class="fil1" cx="364291" cy="391369" r="11702"/>
        <circle class="fil1" cx="450016" cy="391369" r="11702"/>
        <circle class="fil1" cx="535741" cy="391369" r="11702"/>
        <circle class="fil1" cx="621466" cy="391369" r="11702"/>
        <circle class="fil1" cx="707191" cy="391369" r="11702"/>
        <circle class="fil1" cx="792916" cy="391369" r="11702"/>
       </g>
       <g>
        <circle class="fil1" cx="-193893" cy="449948" r="11702"/>
        <circle class="fil1" cx="-108168" cy="449948" r="11702"/>
        <circle class="fil1" cx="-22443" cy="449948" r="11702"/>
        <circle class="fil1" cx="63282" cy="449948" r="11702"/>
        <circle class="fil1" cx="149007" cy="449948" r="11702"/>
        <circle class="fil1" cx="234732" cy="449948" r="11702"/>
        <circle class="fil1" cx="320457" cy="449948" r="11702"/>
        <circle class="fil1" cx="406182" cy="449948" r="11702"/>
        <circle class="fil1" cx="491907" cy="449948" r="11702"/>
        <circle class="fil1" cx="577632" cy="449948" r="11702"/>
        <circle class="fil1" cx="663357" cy="449948" r="11702"/>
        <circle class="fil1" cx="749082" cy="449948" r="11702"/>
       </g>
      </g>
      <g>
       <g>
        <circle class="fil1" cx="-150059" cy="509207" r="11702"/>
        <circle class="fil1" cx="-64334" cy="509207" r="11702"/>
        <circle class="fil1" cx="21391" cy="509207" r="11702"/>
        <circle class="fil1" cx="107116" cy="509207" r="11702"/>
        <circle class="fil1" cx="192841" cy="509207" r="11702"/>
        <circle class="fil1" cx="278566" cy="509207" r="11702"/>
        <circle class="fil1" cx="364291" cy="509207" r="11702"/>
        <circle class="fil1" cx="450016" cy="509207" r="11702"/>
        <circle class="fil1" cx="535741" cy="509207" r="11702"/>
        <circle class="fil1" cx="621466" cy="509207" r="11702"/>
        <circle class="fil1" cx="707191" cy="509207" r="11702"/>
        <circle class="fil1" cx="792916" cy="509207" r="11702"/>
       </g>
       <g>
        <circle class="fil1" cx="-193893" cy="567786" r="11702"/>
        <circle class="fil1" cx="-108168" cy="567786" r="11702"/>
        <circle class="fil1" cx="-22443" cy="567786" r="11702"/>
        <circle class="fil1" cx="63282" cy="567786" r="11702"/>
        <circle class="fil1" cx="149007" cy="567786" r="11702"/>
        <circle class="fil1" cx="234732" cy="567786" r="11702"/>
        <circle class="fil1" cx="320457" cy="567786" r="11702"/>
        <circle class="fil1" cx="406182" cy="567786" r="11702"/>
        <circle class="fil1" cx="491907" cy="567786" r="11702"/>
        <circle class="fil1" cx="577632" cy="567786" r="11702"/>
        <circle class="fil1" cx="663357" cy="567786" r="11702"/>
        <circle class="fil1" cx="749082" cy="567786" r="11702"/>
       </g>
      </g>
      <g>
       <g>
        <circle class="fil1" cx="-150059" cy="627045" r="11702"/>
        <circle class="fil1" cx="-64334" cy="627045" r="11702"/>
        <circle class="fil1" cx="21391" cy="627045" r="11702"/>
        <circle class="fil1" cx="107116" cy="627045" r="11702"/>
        <circle class="fil1" cx="192841" cy="627045" r="11702"/>
        <circle class="fil1" cx="278566" cy="627045" r="11702"/>
        <circle class="fil1" cx="364291" cy="627045" r="11702"/>
        <circle class="fil1" cx="450016" cy="627045" r="11702"/>
        <circle class="fil1" cx="535741" cy="627045" r="11702"/>
        <circle class="fil1" cx="621466" cy="627045" r="11702"/>
        <circle class="fil1" cx="707191" cy="627045" r="11702"/>
        <circle class="fil1" cx="792916" cy="627045" r="11702"/>
       </g>
       <g>
        <circle class="fil1" cx="-193893" cy="685624" r="11702"/>
        <circle class="fil1" cx="-108168" cy="685624" r="11702"/>
        <circle class="fil1" cx="-22443" cy="685624" r="11702"/>
        <circle class="fil1" cx="63282" cy="685624" r="11702"/>
        <circle class="fil1" cx="149007" cy="685624" r="11702"/>
        <circle class="fil1" cx="234732" cy="685624" r="11702"/>
        <circle class="fil1" cx="320457" cy="685624" r="11702"/>
        <circle class="fil1" cx="406182" cy="685624" r="11702"/>
        <circle class="fil1" cx="491907" cy="685624" r="11702"/>
        <circle class="fil1" cx="577632" cy="685624" r="11702"/>
        <circle class="fil1" cx="663357" cy="685624" r="11702"/>
        <circle class="fil1" cx="749082" cy="685624" r="11702"/>
       </g>
      </g>
      <g>
       <g>
        <circle class="fil1" cx="-150059" cy="744883" r="11702"/>
        <circle class="fil1" cx="-64334" cy="744883" r="11702"/>
        <circle class="fil1" cx="21391" cy="744883" r="11702"/>
        <circle class="fil1" cx="107116" cy="744883" r="11702"/>
        <circle class="fil1" cx="192841" cy="744883" r="11702"/>
        <circle class="fil1" cx="278566" cy="744883" r="11702"/>
        <circle class="fil1" cx="364291" cy="744883" r="11702"/>
        <circle class="fil1" cx="450016" cy="744883" r="11702"/>
        <circle class="fil1" cx="535741" cy="744883" r="11702"/>
        <circle class="fil1" cx="621466" cy="744883" r="11702"/>
        <circle class="fil1" cx="707191" cy="744883" r="11702"/>
        <circle class="fil1" cx="792916" cy="744883" r="11702"/>
       </g>
       <g>
        <circle class="fil1" cx="-193893" cy="803462" r="11702"/>
        <circle class="fil1" cx="-108168" cy="803462" r="11702"/>
        <circle class="fil1" cx="-22443" cy="803462" r="11702"/>
        <circle class="fil1" cx="63282" cy="803462" r="11702"/>
        <circle class="fil1" cx="149007" cy="803462" r="11702"/>
        <circle class="fil1" cx="234732" cy="803462" r="11702"/>
        <circle class="fil1" cx="320457" cy="803462" r="11702"/>
        <circle class="fil1" cx="406182" cy="803462" r="11702"/>
        <circle class="fil1" cx="491907" cy="803462" r="11702"/>
        <circle class="fil1" cx="577632" cy="803462" r="11702"/>
        <circle class="fil1" cx="663357" cy="803462" r="11702"/>
        <circle class="fil1" cx="749082" cy="803462" r="11702"/>
       </g>
      </g>
      <g>
       <g>
        <circle class="fil1" cx="-150059" cy="862721" r="11702"/>
        <circle class="fil1" cx="-64334" cy="862721" r="11702"/>
        <circle class="fil1" cx="21391" cy="862721" r="11702"/>
        <circle class="fil1" cx="107116" cy="862721" r="11702"/>
        <circle class="fil1" cx="192841" cy="862721" r="11702"/>
        <circle class="fil1" cx="278566" cy="862721" r="11702"/>
        <circle class="fil1" cx="364291" cy="862721" r="11702"/>
        <circle class="fil1" cx="450016" cy="862721" r="11702"/>
        <circle class="fil1" cx="535741" cy="862721" r="11702"/>
        <circle class="fil1" cx="621466" cy="862721" r="11702"/>
        <circle class="fil1" cx="707191" cy="862721" r="11702"/>
        <circle class="fil1" cx="792916" cy="862721" r="11702"/>
       </g>
       <g>
        <circle class="fil1" cx="-193893" cy="921299" r="11702"/>
        <circle class="fil1" cx="-108168" cy="921299" r="11702"/>
        <circle class="fil1" cx="-22443" cy="921299" r="11702"/>
        <circle class="fil1" cx="63282" cy="921299" r="11702"/>
        <circle class="fil1" cx="149007" cy="921299" r="11702"/>
        <circle class="fil1" cx="234732" cy="921299" r="11702"/>
        <circle class="fil1" cx="320457" cy="921299" r="11702"/>
        <circle class="fil1" cx="406182" cy="921299" r="11702"/>
        <circle class="fil1" cx="491907" cy="921299" r="11702"/>
        <circle class="fil1" cx="577632" cy="921299" r="11702"/>
        <circle class="fil1" cx="663357" cy="921299" r="11702"/>
        <circle class="fil1" cx="749082" cy="921299" r="11702"/>
       </g>
      </g>
     </g>
     <g>
      <rect class="fil2 str0" x="-29748" y="406286" width="702352" height="87429"/>
      <rect class="fil1" x="-29748" y="408634" width="702352" height="82732"/>
     </g>
    </g>
   </g>
   <path class="fil3" d="M0 0l642857 0 0 900000 -642857 0 0 -900000zm222090 611520l0 0 3907 2197c3715,2312 7891,4024 12414,5249l2252 671 982 2336c7160,15401 16956,29021 28195,39033 14800,13019 32179,19864 50020,19864l3214 0c17841,0 35085,-6845 49886,-19864 11509,-9920 21190,-23378 28157,-38894l1059 -2382 2194 -509c4504,-1041 8680,-2960 12799,-5272l3907 -2081 3484 6637 36952 0 0 -44537 -5831 -4625 2059 -4579c1828,-4671 3252,-9712 4407,-15100l462 -2498 1886 -1410c13068,-8394 24211,-20025 32526,-33692 10836,-17967 16629,-38640 16629,-60192l0 -3700c0,-21436 -5793,-42224 -16629,-60076 -8314,-13643 -19400,-25297 -32391,-33738l-1751 -1226 -539 -2798c-1097,-5365 -2444,-10591 -4273,-15285l-2059 -4787 5504 -4139 0 -44444 -36952 0 -3484 6590 -3907 -2220c-4119,-2266 -8295,-4093 -12799,-5180l-2194 -509 -1059 -2544c-6967,-15493 -16648,-28858 -28157,-38686 -14800,-13065 -32045,-20002 -49886,-20002l-3214 0c-17841,0 -35220,6937 -50020,20002 -11240,9966 -21036,23424 -28195,38871l-982 2428 -2252 532c-4523,1226 -8699,2983 -12414,5319l-3907 2312 -3907 -6914 -36798 0 0 44444 5504 4139 -1867 4787c-2040,4694 -3503,9920 -4504,15285l-366 2798 -2021 1226c-12799,8440 -24038,20095 -32160,33738 -10932,17852 -16763,38640 -16763,60076l0 3700c0,21552 5831,42224 16763,60192 8353,13666 19496,25298 32256,33692l2117 1410 404 2498c1097,5388 2483,10429 4503,15100l1732 4579 -5601 4625 0 44537 36798 0 3907 -6983z"/>
   <g>
    <path class="fil4" d="M323117 705024l-3378 0c-20874,0 -41363,-8093 -58637,-23403 -12621,-10960 -23564,-25760 -31634,-42674 -2892,-875 -5906,-2041 -8718,-3475l-2286 3937 -54611 0 0 -65882 3196 -2382c-1133,-3475 -2103,-7169 -3014,-10960 -14017,-9648 -26214,-22576 -35619,-37692 -12561,-20973 -19235,-45323 -19235,-70573l0 -3888c0,-25201 6675,-49649 19235,-70403 9345,-15383 21440,-28190 35437,-37717 809,-3791 1719,-7582 2953,-11325l-2953 -2284 0 -65639 54611 0 2286 3767c2811,-1434 5825,-2698 8718,-3524 8070,-16817 19013,-31641 31634,-42650 17273,-15237 37763,-23281 58637,-23281l3378 0c20894,0 41181,8044 58738,23281 12439,10887 23281,25493 31108,42407 3378,875 6311,2017 9446,3427l1780 -3427 54955 0 0 65639 -3074 2284c1112,3742 2205,7534 2994,11325 13936,9526 26193,22333 35113,37717 12844,20754 19498,45202 19498,70403l0 3888c0,25250 -6654,49600 -19498,70451 -9122,15237 -21319,28166 -35417,37814 -850,3791 -1861,7485 -2973,10960l3357 2382 0 65882 -54955 0 -1780 -3670c-3135,1434 -6068,2600 -9446,3645 -7828,16744 -18669,31349 -31108,42237 -17557,15359 -37844,23403 -58738,23403zm-101067 -93553l0 0 3907 2197c3715,2312 7891,4024 12414,5249l2252 670 981 2336c7160,15401 16956,29020 28195,39033 14800,13019 32179,19863 50020,19863l3214 0c17841,0 35085,-6845 49886,-19863 11509,-9920 21190,-23378 28157,-38894l1059 -2382 2194 -509c4504,-1041 8680,-2960 12799,-5272l3907 -2081 3484 6637 36952 0 0 -44537 -5831 -4625 2059 -4579c1828,-4671 3252,-9712 4407,-15100l462 -2497 1886 -1410c13068,-8394 24211,-20025 32526,-33692 10836,-17967 16629,-38640 16629,-60192l0 -3700c0,-21436 -5793,-42224 -16629,-60076 -8314,-13643 -19400,-25297 -32391,-33738l-1751 -1226 -539 -2798c-1097,-5365 -2444,-10591 -4273,-15285l-2059 -4787 5504 -4139 0 -44444 -36952 0 -3484 6590 -3907 -2220c-4119,-2266 -8295,-4093 -12799,-5180l-2194 -509 -1059 -2544c-6967,-15493 -16648,-28859 -28157,-38686 -14800,-13065 -32044,-20002 -49886,-20002l-3214 0c-17841,0 -35220,6937 -50020,20002 -11240,9966 -21036,23424 -28195,38871l-981 2428 -2252 532c-4523,1226 -8699,2983 -12414,5319l-3907 2312 -3907 -6914 -36798 0 0 44444 5504 4139 -1867 4787c-2040,4694 -3503,9920 -4504,15285l-366 2798 -2021 1226c-12799,8440 -24038,20095 -32160,33738 -10932,17852 -16763,38640 -16763,60076l0 3700c0,21551 5832,42224 16763,60192 8353,13666 19496,25298 32256,33692l2117 1410 404 2497c1097,5388 2483,10429 4504,15100l1732 4579 -5601 4625 0 44537 36798 0 3907 -6983z"/>
    <path class="fil4" d="M323049 694709l-3241 0c-20029,0 -39690,-7765 -56265,-22456 -12111,-10517 -22611,-24718 -30355,-40948 -2775,-839 -5667,-1959 -8365,-3335l-2193 3778 -52402 0 0 -63218 3066 -2285c-1087,-3335 -2018,-6879 -2892,-10517 -13450,-9258 -25153,-21663 -34178,-36168 -12053,-20124 -18457,-43490 -18457,-67718l0 -3731c0,-24182 6405,-47641 18457,-67555 8967,-14761 20573,-27050 34003,-36191 776,-3638 1650,-7276 2834,-10867l-2834 -2192 0 -62984 52402 0 2193 3614c2698,-1376 5590,-2588 8365,-3381 7744,-16137 18244,-30361 30355,-40925 16575,-14621 36235,-22340 56265,-22340l3241 0c20049,0 39515,7719 56362,22340 11936,10447 22339,24462 29850,40692 3241,839 6056,1935 9064,3288l1708 -3288 52732 0 0 62984 -2950 2192c1067,3591 2115,7229 2872,10867 13372,9141 25134,21430 33693,36191 12324,19914 18710,43373 18710,67555l0 3731c0,24228 -6385,47594 -18710,67602 -8753,14621 -20456,27026 -33984,36284 -815,3638 -1786,7182 -2853,10517l3222 2285 0 63218 -52732 0 -1708 -3521c-3008,1376 -5823,2495 -9064,3498 -7511,16067 -17914,30081 -29850,40528 -16846,14737 -36313,22456 -56362,22456zm-96979 -89768l0 0 3749 2108c3564,2219 7572,3861 11911,5037l2161 643 942 2241c6870,14778 16270,27847 27055,37454 14202,12492 30878,19060 47997,19060l3084 0c17119,0 33666,-6568 47868,-19060 11044,-9519 20333,-22433 27018,-37321l1016 -2285 2105 -488c4322,-999 8329,-2840 12281,-5059l3749 -1997 3343 6368 35457 0 0 -42735 -5596 -4438 1976 -4393c1754,-4482 3121,-9319 4229,-14489l443 -2396 1810 -1353c12539,-8054 23232,-19215 31210,-32329 10397,-17241 15956,-37077 15956,-57757l0 -3550c0,-20569 -5559,-40516 -15956,-57646 -7978,-13091 -18615,-24274 -31081,-32373l-1681 -1176 -517 -2685c-1053,-5148 -2345,-10162 -4100,-14667l-1976 -4593 5282 -3972 0 -42646 -35457 0 -3343 6324 -3749 -2130c-3952,-2174 -7959,-3927 -12281,-4970l-2105 -488 -1016 -2441c-6685,-14866 -15974,-27691 -27018,-37121 -14202,-12537 -30748,-19193 -47868,-19193l-3084 0c-17119,0 -33795,6657 -47997,19193 -10785,9563 -20185,22477 -27055,37299l-942 2330 -2161 510c-4340,1176 -8347,2863 -11911,5104l-3749 2219 -3749 -6634 -35310 0 0 42646 5282 3972 -1791 4593c-1958,4504 -3361,9519 -4321,14667l-351 2685 -1939 1176c-12281,8099 -23066,19282 -30859,32373 -10490,17129 -16085,37077 -16085,57646l0 3550c0,20680 5596,40516 16085,57757 8015,13113 18707,24274 30951,32329l2031 1353 388 2396c1053,5170 2382,10007 4321,14489l1662 4393 -5374 4438 0 42735 35310 0 3749 -6701z"/>
    <path class="fil5" d="M323105 703093l-3352 0c-20716,0 -41050,-8031 -58192,-23226 -12526,-10877 -23385,-25565 -31395,-42351 -2870,-868 -5861,-2026 -8652,-3449l-2268 3907 -54198 0 0 -65383 3171 -2363c-1124,-3449 -2088,-7115 -2991,-10877 -13911,-9575 -26015,-22405 -35349,-37407 -12466,-20814 -19090,-44980 -19090,-70038l0 -3859c0,-25010 6624,-49273 19090,-69869 9274,-15267 21278,-27977 35168,-37431 803,-3762 1706,-7525 2931,-11239l-2931 -2267 0 -65142 54198 0 2268 3738c2790,-1423 5781,-2677 8652,-3497 8009,-16690 18869,-31401 31395,-42327 17143,-15122 37477,-23105 58192,-23105l3352 0c20736,0 40869,7983 58293,23105 12345,10805 23104,25300 30873,42086 3352,868 6263,2002 9374,3401l1766 -3401 54539 0 0 65142 -3051 2267c1104,3714 2188,7477 2971,11239 13830,9454 25995,22164 34847,37431 12746,20597 19351,44859 19351,69869l0 3859c0,25058 -6604,49224 -19351,69918 -9053,15122 -21157,27952 -35148,37527 -843,3762 -1847,7428 -2951,10877l3332 2363 0 65383 -54539 0 -1766 -3642c-3111,1423 -6022,2581 -9374,3618 -7768,16617 -18528,31112 -30873,41917 -17424,15242 -37557,23226 -58293,23226zm-100302 -92844l0 0 3877 2180c3686,2295 7831,3993 12320,5209l2235 665 974 2318c7105,15284 16827,28801 27982,38737 14688,12920 31935,19713 49641,19713l3190 0c17706,0 34820,-6793 49508,-19713 11422,-9845 21029,-23201 27944,-38600l1051 -2364 2177 -505c4470,-1033 8614,-2938 12702,-5232l3877 -2065 3457 6586 36672 0 0 -44199 -5787 -4590 2044 -4544c1814,-4636 3228,-9638 4374,-14986l458 -2479 1872 -1400c12969,-8330 24028,-19874 32279,-33436 10754,-17831 16503,-38347 16503,-59736l0 -3672c0,-21273 -5749,-41904 -16503,-59621 -8251,-13540 -19253,-25106 -32146,-33482l-1738 -1216 -535 -2777c-1089,-5324 -2426,-10511 -4240,-15169l-2044 -4750 5463 -4108 0 -44108 -36672 0 -3457 6540 -3877 -2203c-4087,-2249 -8232,-4062 -12702,-5141l-2177 -505 -1051 -2524c-6914,-15376 -16522,-28640 -27944,-38393 -14688,-12966 -31802,-19851 -49508,-19851l-3190 0c-17706,0 -34953,6885 -49641,19851 -11155,9891 -20877,23247 -27982,38577l-974 2410 -2235 528c-4488,1216 -8633,2961 -12320,5278l-3877 2295 -3877 -6862 -36520 0 0 44108 5463 4108 -1853 4750c-2025,4659 -3476,9845 -4469,15169l-363 2777 -2006 1216c-12702,8376 -23856,19942 -31916,33482 -10849,17716 -16636,38347 -16636,59621l0 3672c0,21388 5787,41904 16636,59736 8289,13563 19348,25106 32012,33436l2101 1400 401 2479c1089,5347 2464,10350 4469,14986l1719 4544 -5558 4590 0 44199 36520 0 3877 -6931z"/>
   </g>
   <g>
    <g>
     <g>
      <path class="fil6" d="M80485 341734c0,0 1433,1209 1279,2162 -154,952 -775,2578 -775,2578 0,0 -2037,1918 1477,3757 3514,1839 9545,2814 14314,719 1941,-853 3892,-1295 5530,-1523 -2057,1310 -4366,3017 -5760,4380 -2031,1984 -3685,4874 -2183,5660 1502,786 5335,-3019 7141,-4979 1805,-1961 5375,-3636 8801,-5173 3426,-1538 4854,-1286 6829,-1812 1975,-525 5124,-2208 6757,-3975 614,-664 924,-1226 1072,-1670 1842,961 4114,249 5078,-1593 273,-522 398,-1077 415,-1629 1073,146 2681,327 4598,409 2676,116 4358,-299 6904,-929 768,-189 1621,-400 2610,-624 4197,-946 6202,320 8210,1941 221,176 538,143 713,-76 176,-218 142,-538 -75,-713 -2138,-1724 -4437,-3187 -9071,-2141 -997,224 -1856,436 -2629,628 -2548,630 -4087,1009 -6617,900 -2013,-87 -3716,-289 -4756,-437 -141,-553 -396,-1072 -771,-1514 702,-227 1779,-457 3366,-502 3879,-110 7278,-1365 9805,-2446 2799,-1199 6562,-1076 8551,288 229,153 547,98 705,-134 158,-232 98,-547 -134,-705 -2298,-1560 -6386,-1725 -9522,-382 -2445,1045 -5727,2260 -9435,2365 -2159,61 -3474,439 -4232,764 -77,-47 -143,-105 -225,-148 -604,-316 -1253,-436 -1888,-411 785,-866 1591,-1791 2402,-2786 5119,-6273 13250,-20496 14698,-25018 1448,-4522 2109,-13242 3119,-18682 1010,-5439 660,-11132 -3801,-10941 -4461,191 -9889,5958 -11736,9926 -1847,3968 -4461,10061 -8171,11448 -3710,1387 -9371,4967 -10656,8081 -1286,3115 -865,4942 342,8557 1207,3616 505,7150 505,7150 0,0 -770,-5109 -3469,-6750 -2699,-1642 -9459,-2540 -12324,-137 -2864,2403 -5141,4999 -6741,5425 -1600,425 -2221,2051 -2221,2051 0,0 -1973,919 -3049,2536 -1076,1617 -784,3033 -784,3033 0,0 481,1055 -273,2497 -754,1442 -2461,2729 -2461,2729 0,0 893,926 597,2149 -295,1223 -1308,1841 -1308,1841 0,0 579,648 468,1737 -111,1090 -1222,2115 -1222,2115zm42474 -3254l0 0c0,18 1,36 1,53 -16,-3 -31,-6 -47,-8 15,-15 31,-30 47,-45z"/>
      <path class="fil6" d="M68669 314089c643,-352 1488,-1746 2246,-3415 759,-1669 2375,-3004 6728,-4743 4353,-1739 13869,2667 16439,3897 2570,1230 4470,1765 4470,1765 0,0 -3845,-3619 -5986,-5887 -2141,-2268 -2993,-7879 -3689,-9620 -696,-1741 912,-5032 2631,-7001 1719,-1970 6703,-3378 9147,-5198 2444,-1820 3613,-8439 4113,-10931 501,-2492 3952,-7114 6650,-7883 2698,-769 7130,3043 10397,8425 3267,5382 5361,20021 5361,20021 0,0 20,566 -180,1029 -200,464 -784,982 -1487,1809 -702,826 -1513,1425 -2717,1961 -1204,535 -2636,1207 -4048,2032 -1412,825 -2549,1694 -3504,2459 -955,765 -1955,1834 -2762,3160 -807,1326 -1163,2575 -1332,3823 -169,1247 151,2780 543,3823 392,1044 818,2403 1084,3524 266,1120 164,2403 164,2403 0,0 -122,-689 -443,-1326 -321,-637 -977,-1691 -1724,-2409 -747,-718 -1873,-1364 -4067,-1844 -2194,-480 -3468,-379 -4883,-338 -1414,41 -2778,365 -4095,1226 -1317,860 -1988,1518 -3318,2783 -1330,1265 -2183,2027 -3009,2519 -826,492 -1150,351 -1984,966 -834,616 -1229,1560 -1229,1560 0,0 -943,445 -1708,1011 -765,566 -1581,1745 -2094,2997 -513,1252 -191,2131 -191,2131 0,0 110,1337 -633,2540 -743,1203 -2240,2325 -2240,2325 0,0 907,1498 733,2402 -175,904 -1424,1743 -1424,1743 0,0 592,1177 407,2075 -186,898 -1233,1823 -1233,1823 0,0 -681,2398 -1427,3385 -746,987 -2354,1867 -3766,1932 -1411,65 -1888,-1218 -1721,-2852 167,-1634 -542,-2693 -542,-2693 0,0 472,-901 -452,-2646 -923,-1745 -1836,-1535 -1836,-1535 0,0 656,-1034 454,-2402 -202,-1368 -1918,-2037 -1918,-2037 0,0 802,-1532 599,-2900 -202,-1368 -1180,-2569 -1180,-2569 0,0 535,-1900 24,-3775 -511,-1874 -1275,-2389 -1275,-2389 0,0 377,-721 939,-1575 562,-854 866,-2531 471,-3312 -395,-781 -147,-1913 497,-2265z"/>
     </g>
     <g>
      <path class="fil7" d="M81718 340511c0,0 1374,1159 1226,2072 -148,913 -743,2471 -743,2471 0,0 -1952,1839 1416,3601 3368,1762 9149,2698 13720,689 1861,-817 3731,-1241 5300,-1460 -1972,1256 -4184,2892 -5521,4198 -1946,1902 -3532,4672 -2092,5426 1440,753 5114,-2893 6844,-4772 1730,-1879 5152,-3485 8436,-4959 3284,-1474 4653,-1233 6546,-1737 1893,-503 4911,-2117 6477,-3810 588,-636 886,-1175 1028,-1600 1766,921 3944,238 4867,-1527 262,-500 381,-1033 397,-1561 1028,140 2570,313 4407,392 2565,111 4177,-287 6617,-890 736,-182 1553,-383 2502,-598 4023,-907 5944,307 7869,1860 212,169 516,137 684,-72 169,-209 136,-515 -72,-684 -2049,-1653 -4253,-3055 -8695,-2052 -956,215 -1779,418 -2520,602 -2443,603 -3917,967 -6342,863 -1929,-83 -3562,-277 -4559,-419 -135,-530 -380,-1028 -739,-1451 673,-218 1705,-438 3226,-481 3718,-105 6976,-1308 9399,-2344 2683,-1149 6290,-1032 8196,276 219,146 524,94 676,-128 151,-222 94,-525 -128,-676 -2203,-1495 -6121,-1654 -9127,-366 -2343,1002 -5489,2166 -9043,2267 -2069,59 -3330,421 -4056,733 -74,-46 -137,-101 -215,-142 -579,-303 -1201,-417 -1810,-394 753,-830 1525,-1717 2303,-2670 4907,-6013 12701,-19645 14089,-23980 1388,-4334 2022,-12693 2990,-17907 968,-5214 633,-10670 -3643,-10487 -4276,183 -9479,5711 -11249,9514 -1771,3804 -4276,9643 -7832,10973 -3556,1330 -8982,4761 -10214,7746 -1232,2985 -829,4737 328,8202 1157,3466 484,6854 484,6854 0,0 -738,-4897 -3325,-6470 -2587,-1574 -9067,-2434 -11812,-131 -2745,2304 -4928,4792 -6461,5200 -1533,408 -2129,1966 -2129,1966 0,0 -1891,881 -2922,2431 -1031,1550 -751,2907 -751,2907 0,0 461,1011 -262,2393 -723,1382 -2359,2616 -2359,2616 0,0 856,888 572,2060 -283,1172 -1253,1764 -1253,1764 0,0 555,621 449,1665 -107,1044 -1171,2027 -1171,2027zm40711 -3119l0 0c0,17 1,34 1,51 -15,-3 -30,-5 -45,-8 15,-14 30,-29 45,-43z"/>
      <path class="fil8" d="M70392 314014c616,-338 1426,-1674 2153,-3274 727,-1600 2277,-2879 6449,-4546 4172,-1667 13293,2556 15757,3735 2463,1179 4285,1692 4285,1692 0,0 -3685,-3468 -5738,-5643 -2053,-2174 -2869,-7552 -3536,-9221 -667,-1669 874,-4823 2522,-6711 1648,-1888 6425,-3238 8768,-4983 2343,-1744 3463,-8089 3943,-10478 480,-2389 3788,-6818 6374,-7556 2586,-737 6834,2916 9965,8075 3131,5159 5139,19190 5139,19190 0,0 19,542 -173,987 -192,445 -752,942 -1425,1734 -673,792 -1451,1366 -2605,1879 -1154,513 -2526,1157 -3880,1948 -1354,790 -2443,1623 -3359,2357 -915,733 -1873,1758 -2647,3029 -774,1271 -1115,2468 -1277,3664 -162,1196 145,2664 521,3665 376,1000 784,2304 1039,3377 255,1074 157,2303 157,2303 0,0 -117,-661 -425,-1271 -307,-610 -936,-1621 -1653,-2309 -716,-688 -1795,-1307 -3898,-1767 -2103,-460 -3324,-364 -4680,-324 -1356,40 -2663,350 -3925,1175 -1262,824 -1906,1455 -3181,2668 -1275,1213 -2093,1943 -2884,2414 -791,471 -1102,336 -1901,926 -799,590 -1178,1495 -1178,1495 0,0 -904,426 -1638,969 -734,543 -1516,1673 -2007,2873 -492,1200 -183,2043 -183,2043 0,0 106,1281 -606,2435 -713,1153 -2147,2228 -2147,2228 0,0 870,1436 703,2302 -167,866 -1364,1670 -1364,1670 0,0 568,1128 390,1988 -178,861 -1182,1747 -1182,1747 0,0 -653,2298 -1368,3244 -715,946 -2257,1790 -3609,1852 -1352,62 -1809,-1167 -1650,-2734 160,-1566 -519,-2582 -519,-2582 0,0 452,-864 -433,-2537 -885,-1673 -1760,-1471 -1760,-1471 0,0 629,-991 435,-2302 -194,-1312 -1839,-1952 -1839,-1952 0,0 768,-1468 574,-2780 -194,-1312 -1131,-2462 -1131,-2462 0,0 513,-1822 23,-3618 -490,-1796 -1222,-2290 -1222,-2290 0,0 362,-691 900,-1509 538,-818 830,-2426 451,-3174 -379,-748 -140,-1834 476,-2171z"/>
     </g>
    </g>
    <g>
     <g>
      <path class="fil6" d="M562372 341734c0,0 -1433,1209 -1279,2162 154,952 775,2578 775,2578 0,0 2037,1918 -1477,3757 -3514,1839 -9545,2814 -14314,719 -1941,-853 -3892,-1295 -5530,-1523 2057,1310 4366,3017 5760,4380 2031,1984 3685,4874 2183,5660 -1502,786 -5335,-3019 -7141,-4979 -1805,-1961 -5375,-3636 -8801,-5173 -3426,-1538 -4854,-1286 -6829,-1812 -1975,-525 -5124,-2208 -6757,-3975 -614,-664 -924,-1226 -1072,-1670 -1842,961 -4114,249 -5078,-1593 -273,-522 -398,-1077 -415,-1629 -1073,146 -2681,327 -4598,409 -2676,116 -4358,-299 -6904,-929 -768,-189 -1621,-400 -2610,-624 -4197,-946 -6202,320 -8210,1941 -221,176 -538,143 -713,-76 -176,-218 -142,-538 75,-713 2138,-1724 4437,-3187 9071,-2141 997,224 1856,436 2629,628 2548,630 4087,1009 6617,900 2013,-87 3716,-289 4756,-437 141,-553 396,-1072 771,-1514 -702,-227 -1779,-457 -3366,-502 -3879,-110 -7278,-1365 -9805,-2446 -2799,-1199 -6562,-1076 -8551,288 -229,153 -547,98 -705,-134 -158,-232 -98,-547 134,-705 2298,-1560 6386,-1725 9522,-382 2445,1045 5727,2260 9435,2365 2159,61 3474,439 4232,764 77,-47 143,-105 225,-148 604,-316 1253,-436 1888,-411 -785,-866 -1591,-1791 -2402,-2786 -5119,-6273 -13250,-20496 -14698,-25018 -1448,-4522 -2109,-13242 -3119,-18682 -1010,-5439 -660,-11132 3801,-10941 4461,191 9889,5958 11736,9926 1847,3968 4461,10061 8171,11448 3710,1387 9371,4967 10656,8081 1286,3115 865,4942 -342,8557 -1207,3616 -505,7150 -505,7150 0,0 770,-5109 3469,-6750 2699,-1642 9459,-2540 12324,-137 2864,2403 5141,4999 6741,5425 1600,425 2221,2051 2221,2051 0,0 1973,919 3049,2536 1076,1617 784,3033 784,3033 0,0 -481,1055 273,2497 754,1442 2461,2729 2461,2729 0,0 -893,926 -597,2149 295,1223 1308,1841 1308,1841 0,0 -579,648 -468,1737 111,1090 1222,2115 1222,2115zm-42474 -3254l0 0c0,18 -1,36 -1,53 16,-3 31,-6 47,-8 -15,-15 -31,-30 -47,-45z"/>
      <path class="fil6" d="M574188 314089c-643,-352 -1488,-1746 -2246,-3415 -759,-1669 -2375,-3004 -6728,-4743 -4353,-1739 -13869,2667 -16439,3897 -2570,1230 -4470,1765 -4470,1765 0,0 3845,-3619 5986,-5887 2141,-2268 2993,-7879 3689,-9620 696,-1741 -912,-5032 -2631,-7001 -1719,-1970 -6703,-3378 -9147,-5198 -2444,-1820 -3613,-8439 -4113,-10931 -501,-2492 -3952,-7114 -6650,-7883 -2698,-769 -7130,3043 -10397,8425 -3267,5382 -5361,20021 -5361,20021 0,0 -20,566 180,1029 200,464 784,982 1487,1809 702,826 1513,1425 2717,1961 1204,535 2636,1207 4048,2032 1412,825 2549,1694 3504,2459 955,765 1955,1834 2762,3160 807,1326 1163,2575 1332,3823 169,1247 -151,2780 -543,3823 -392,1044 -818,2403 -1084,3524 -266,1120 -164,2403 -164,2403 0,0 122,-689 443,-1326 321,-637 977,-1691 1724,-2409 747,-718 1873,-1364 4067,-1844 2194,-480 3468,-379 4883,-338 1414,41 2778,365 4095,1226 1317,860 1988,1518 3318,2783 1330,1265 2183,2027 3009,2519 826,492 1150,351 1984,966 834,616 1229,1560 1229,1560 0,0 943,445 1708,1011 765,566 1581,1745 2094,2997 513,1252 191,2131 191,2131 0,0 -110,1337 633,2540 743,1203 2240,2325 2240,2325 0,0 -907,1498 -733,2402 175,904 1424,1743 1424,1743 0,0 -592,1177 -407,2075 186,898 1233,1823 1233,1823 0,0 681,2398 1427,3385 746,987 2354,1867 3766,1932 1411,65 1888,-1218 1721,-2852 -167,-1634 542,-2693 542,-2693 0,0 -472,-901 452,-2646 923,-1745 1836,-1535 1836,-1535 0,0 -656,-1034 -454,-2402 202,-1368 1918,-2037 1918,-2037 0,0 -802,-1532 -599,-2900 202,-1368 1180,-2569 1180,-2569 0,0 -535,-1900 -24,-3775 511,-1874 1275,-2389 1275,-2389 0,0 -377,-721 -939,-1575 -562,-854 -866,-2531 -471,-3312 395,-781 147,-1913 -497,-2265z"/>
     </g>
     <g>
      <path class="fil9" d="M561139 340511c0,0 -1374,1159 -1226,2072 148,913 743,2471 743,2471 0,0 1952,1839 -1416,3601 -3368,1762 -9149,2698 -13720,689 -1861,-817 -3731,-1241 -5300,-1460 1972,1256 4184,2892 5521,4198 1946,1902 3532,4672 2092,5426 -1440,753 -5114,-2893 -6844,-4772 -1730,-1879 -5152,-3485 -8436,-4959 -3284,-1474 -4653,-1233 -6546,-1737 -1893,-503 -4911,-2117 -6477,-3810 -588,-636 -886,-1175 -1028,-1600 -1766,921 -3944,238 -4867,-1527 -262,-500 -381,-1033 -397,-1561 -1028,140 -2570,313 -4407,392 -2565,111 -4177,-287 -6617,-890 -736,-182 -1553,-383 -2502,-598 -4023,-907 -5944,307 -7869,1860 -212,169 -516,137 -684,-72 -169,-209 -136,-515 72,-684 2049,-1653 4253,-3055 8695,-2052 956,215 1779,418 2520,602 2443,603 3917,967 6342,863 1929,-83 3562,-277 4559,-419 135,-530 380,-1028 739,-1451 -673,-218 -1705,-438 -3226,-481 -3718,-105 -6976,-1308 -9399,-2344 -2683,-1149 -6290,-1032 -8196,276 -219,146 -524,94 -676,-128 -151,-222 -94,-525 128,-676 2203,-1495 6121,-1654 9127,-366 2343,1002 5489,2166 9043,2267 2069,59 3330,421 4056,733 74,-46 137,-101 215,-142 579,-303 1201,-417 1810,-394 -753,-830 -1525,-1717 -2303,-2670 -4907,-6013 -12701,-19645 -14089,-23980 -1388,-4334 -2022,-12693 -2990,-17907 -968,-5214 -633,-10670 3643,-10487 4276,183 9479,5711 11249,9514 1771,3804 4276,9643 7832,10973 3556,1330 8982,4761 10214,7746 1232,2985 829,4737 -328,8202 -1157,3466 -484,6854 -484,6854 0,0 738,-4897 3325,-6470 2587,-1574 9067,-2434 11812,-131 2745,2304 4928,4792 6461,5200 1533,408 2129,1966 2129,1966 0,0 1891,881 2922,2431 1031,1550 751,2907 751,2907 0,0 -461,1011 262,2393 723,1382 2359,2616 2359,2616 0,0 -856,888 -572,2060 283,1172 1253,1764 1253,1764 0,0 -555,621 -449,1665 107,1044 1171,2027 1171,2027zm-40711 -3119l0 0c0,17 -1,34 -1,51 15,-3 30,-5 45,-8 -15,-14 -30,-29 -45,-43z"/>
      <path class="fil10" d="M572465 314014c-616,-338 -1426,-1674 -2153,-3274 -727,-1600 -2277,-2879 -6449,-4546 -4172,-1667 -13293,2556 -15757,3735 -2463,1179 -4285,1692 -4285,1692 0,0 3685,-3468 5738,-5643 2053,-2174 2869,-7552 3536,-9221 667,-1669 -874,-4823 -2522,-6711 -1648,-1888 -6425,-3238 -8768,-4983 -2343,-1744 -3463,-8089 -3943,-10478 -480,-2389 -3788,-6818 -6374,-7556 -2586,-737 -6834,2916 -9965,8075 -3131,5159 -5139,19190 -5139,19190 0,0 -19,542 173,987 192,445 752,942 1425,1734 673,792 1451,1366 2605,1879 1154,513 2526,1157 3880,1948 1354,790 2443,1623 3359,2357 915,733 1873,1758 2647,3029 774,1271 1115,2468 1277,3664 162,1196 -145,2664 -521,3665 -376,1000 -784,2304 -1039,3377 -255,1074 -157,2303 -157,2303 0,0 117,-661 425,-1271 307,-610 936,-1621 1653,-2309 716,-688 1795,-1307 3898,-1767 2103,-460 3324,-364 4680,-324 1356,40 2663,350 3925,1175 1262,824 1906,1455 3181,2668 1275,1213 2093,1943 2884,2414 791,471 1102,336 1901,926 799,590 1178,1495 1178,1495 0,0 904,426 1638,969 734,543 1516,1673 2007,2873 492,1200 183,2043 183,2043 0,0 -106,1281 606,2435 713,1153 2147,2228 2147,2228 0,0 -870,1436 -703,2302 167,866 1364,1670 1364,1670 0,0 -568,1128 -390,1988 178,861 1182,1747 1182,1747 0,0 653,2298 1368,3244 715,946 2257,1790 3609,1852 1352,62 1809,-1167 1650,-2734 -160,-1566 519,-2582 519,-2582 0,0 -452,-864 433,-2537 885,-1673 1760,-1471 1760,-1471 0,0 -629,-991 -435,-2302 194,-1312 1839,-1952 1839,-1952 0,0 -768,-1468 -574,-2780 194,-1312 1131,-2462 1131,-2462 0,0 -513,-1822 -23,-3618 490,-1796 1222,-2290 1222,-2290 0,0 -362,-691 -900,-1509 -538,-818 -830,-2426 -451,-3174 379,-748 140,-1834 -476,-2171z"/>
     </g>
    </g>
   </g>
  </g>
 </g>
</svg>
